<?xml version="1.0" encoding="UTF-8"?>
<!DOCTYPE svg PUBLIC "-//W3C//DTD SVG 1.1//EN" "http://www.w3.org/Graphics/SVG/1.1/DTD/svg11.dtd">
<!-- Creator: CorelDRAW 2019 (64 Bit) -->
<svg xmlns="http://www.w3.org/2000/svg" xml:space="preserve" width="51.9543mm" height="3.1877mm" version="1.1" style="shape-rendering:geometricPrecision; text-rendering:geometricPrecision; image-rendering:optimizeQuality; fill-rule:evenodd; clip-rule:evenodd"
viewBox="0 0 1653.65 101.46"
 xmlns:xlink="http://www.w3.org/1999/xlink">
 <defs>
  <style type="text/css">
   <![CDATA[
    .str0 {stroke:black;stroke-width:6.37;stroke-miterlimit:22.9256}
    .fil1 {fill:black}
    .fil0 {fill:black}
   ]]>
  </style>
 </defs>
 <g id="Camada_x0020_1">
  <metadata id="CorelCorpID_0Corel-Layer"/>
  <g id="_2385349484336">
   <g>
    <g>
     <polygon class="fil0" points="533.9,40.3 573.95,98.62 588.79,98.62 535.3,22.01 521.78,22.01 521.78,98.62 533.9,98.62 "/>
     <path class="fil0" d="M81.47 23.85l0 74.05 11.82 0 0 -22.63 25.2 0c8.97,0 13.89,4.92 13.89,13.89l0 8.74 11.82 0 0 -8.74c0,-6.27 -1.09,-13.17 -5.19,-18.16l-1.34 -1.63 1.34 -1.64c4.1,-5.01 5.19,-11.88 5.19,-18.18 0,-17.41 -8.3,-25.71 -25.71,-25.71l-37.02 0zm50.91 25.71c0,8.97 -4.92,13.89 -13.89,13.89l-25.2 0 0 -27.77 25.2 0c8.96,0 13.89,4.93 13.89,13.88zm65.04 48.34l11.82 0 0 -48.34c0,-8.97 4.92,-13.88 13.89,-13.88 8.96,0 13.88,4.93 13.88,13.88l0 48.34 11.81 0 0 -48.34c0,-17.41 -8.28,-25.71 -25.69,-25.71 -6.27,0 -13.18,1.08 -18.17,5.18l-1.64 1.35 -1.63 -1.35c-4.98,-4.1 -11.89,-5.18 -18.16,-5.18 -17.42,0 -25.71,8.29 -25.71,25.71l0 48.34 11.82 0 0 -48.34c0,-8.97 4.92,-13.88 13.88,-13.88 8.96,0 13.89,4.93 13.89,13.88l0 48.34zm65.04 -42.68l0 11.31c0,21.19 10.17,31.37 31.37,31.37 21.19,0 31.37,-10.17 31.37,-31.37l0 -11.31c0,-21.19 -10.17,-31.37 -31.37,-31.37 -21.19,0 -31.37,10.17 -31.37,31.37zm31.37 -19.54c12.74,0 19.54,6.8 19.54,19.54l0 11.31c0,12.74 -6.8,19.54 -19.54,19.54 -12.74,0 -19.54,-6.8 -19.54,-19.54l0 -11.31c0,-12.74 6.8,-19.54 19.54,-19.54zm44.99 62.22l11.82 0 0 -42.68c0,-12.74 6.8,-19.54 19.54,-19.54 12.74,0 19.54,6.8 19.54,19.54l0 42.68 11.82 0 0 -42.68c0,-21.19 -10.17,-31.37 -31.36,-31.37 -21.19,0 -31.37,10.17 -31.37,31.37l0 42.68zm91 0l0 -74.05 -11.81 0 0 74.05 11.81 0zm79.19 0l0 -11.82 -31.36 0c-12.74,0 -19.54,-6.8 -19.54,-19.54l0 -11.31c0,-12.74 6.8,-19.54 19.54,-19.54l31.36 0 0 -11.82 -31.36 0c-21.19,0 -31.37,10.17 -31.37,31.37l0 11.31c0,21.19 10.17,31.37 31.37,31.37l31.36 0z"/>
     <polygon class="fil0" points="54.9,39.8 14.85,98.12 -0,98.12 53.5,21.51 67.01,21.51 67.01,98.12 54.9,98.12 "/>
    </g>
    <circle class="fil0 str0" cx="550.69" cy="92.55" r="5.73"/>
   </g>
   <path class="fil1" d="M628.76 51.09l42.35 0 0 17.85 -42.34 0c1.17,8.14 6.5,11.41 14.79,11.41l32.87 0 0 17.85 -32.87 0c-21.81,0 -32.87,-11.06 -32.87,-32.87l0 -10.64c0,-21.81 11.06,-32.87 32.87,-32.87l32.87 0 0 17.84 -32.87 0c-8.3,0 -13.63,3.28 -14.8,11.43zm95.95 47.11l-39.52 0 0 -17.85 39.52 0c3.91,0 5.71,-1.8 5.71,-5.71 0,-3.91 -1.8,-5.71 -5.71,-5.71l-18.64 0c-15.6,0 -23.55,-7.95 -23.55,-23.55 0,-15.6 7.94,-23.57 23.55,-23.57l39.52 0 0 17.84 -39.52 0c-3.92,0 -5.71,1.81 -5.71,5.73 0,3.91 1.8,5.71 5.71,5.71l18.64 0c15.6,0 23.55,7.96 23.55,23.55 0,15.6 -7.95,23.55 -23.55,23.55zm62.51 -76.38l32.87 0 0 17.84 -32.87 0c-10.12,0 -15.02,4.9 -15.02,15.03l0 10.64c0,10.12 4.9,15.02 15.02,15.02l32.87 0 0 17.85 -32.87 0c-21.81,0 -32.87,-11.06 -32.87,-32.87l0 -10.64c0,-21.81 11.06,-32.87 32.87,-32.87zm38.96 32.87c0,-21.81 11.06,-32.87 32.87,-32.87 21.81,0 32.87,11.06 32.87,32.87l0 10.64c0,21.81 -11.06,32.87 -32.87,32.87 -21.81,0 -32.87,-11.06 -32.87,-32.87l0 -10.64zm104.7 25.67l32.87 0 0 17.85 -32.87 0c-21.81,0 -32.87,-11.06 -32.87,-32.87l0 -43.51 17.85 0 0 43.51c0,10.12 4.9,15.02 15.02,15.02zm86.86 1.88l-30.05 0 0 15.97 -17.84 0 0 -43.51c0,-21.81 11.06,-32.87 32.87,-32.87 21.81,0 32.87,11.06 32.87,32.87l0 43.51 -17.84 0 0 -15.97zm89.15 -60.42c21.81,0 32.87,11.06 32.87,32.87l0 10.64c0,21.81 -11.06,32.87 -32.87,32.87l-38.19 0 0 -76.38 38.19 0zm57.03 29.28l42.35 0 0 17.85 -42.34 0c1.17,8.14 6.5,11.41 14.79,11.41l32.87 0 0 17.85 -32.87 0c-21.81,0 -32.87,-11.06 -32.87,-32.87l0 -10.64c0,-21.81 11.06,-32.87 32.87,-32.87l32.87 0 0 17.84 -32.87 0c-8.3,0 -13.63,3.28 -14.8,11.43zm126.95 -24.1c5.27,-4.01 12.15,-5.17 18.64,-5.17 18.25,0 27.53,9.3 27.53,27.55l0 48.84 -17.83 0 0 -48.84c0,-6.56 -3.14,-9.7 -9.7,-9.7 -6.57,0 -9.7,3.14 -9.7,9.7l0 48.84 -17.84 0 0 -48.84c0,-6.56 -3.14,-9.7 -9.7,-9.7 -6.57,0 -9.7,3.14 -9.7,9.7l0 48.84 -17.85 0 0 -48.84c0,-18.26 9.29,-27.55 27.55,-27.55 6.48,0 13.35,1.16 18.62,5.17zm52.28 38.34l0 -43.51 17.84 0 0 43.51c0,10.12 4.9,15.02 15.03,15.02 10.12,0 15.02,-4.9 15.02,-15.02l0 -43.51 17.85 0 0 43.51c0,21.81 -11.06,32.87 -32.87,32.87 -21.81,0 -32.87,-11.06 -32.87,-32.87zm40.29 -47.48l-15.12 0 5.95 -17.84 21.07 0 -11.9 17.84zm73.73 80.35l-39.52 0 0 -17.85 39.52 0c3.91,0 5.71,-1.8 5.71,-5.71 0,-3.91 -1.8,-5.71 -5.71,-5.71l-18.64 0c-15.6,0 -23.55,-7.95 -23.55,-23.55 0,-15.6 7.94,-23.57 23.55,-23.57l39.52 0 0 17.84 -39.52 0c-3.92,0 -5.71,1.81 -5.71,5.73 0,3.91 1.8,5.71 5.71,5.71l18.64 0c15.6,0 23.55,7.96 23.55,23.55 0,15.6 -7.96,23.55 -23.55,23.55zm50.14 0l-17.83 0 0 -76.38 17.83 0 0 76.38zm41.63 -76.38l32.87 0 0 17.84 -32.87 0c-10.12,0 -15.02,4.9 -15.02,15.03l0 10.64c0,10.12 4.9,15.02 15.02,15.02l32.87 0 0 17.85 -32.87 0c-21.81,0 -32.87,-11.06 -32.87,-32.87l0 -10.64c0,-21.81 11.06,-32.87 32.87,-32.87zm86.86 60.42l-30.05 0 0 15.97 -17.84 0 0 -43.51c0,-21.81 11.06,-32.87 32.87,-32.87 21.81,0 32.87,11.06 32.87,32.87l0 43.51 -17.84 0 0 -15.97zm-776.75 -42.57c-10.12,0 -15.02,4.9 -15.02,15.03l0 10.64c0,10.12 4.9,15.02 15.02,15.02 10.12,0 15.03,-4.9 15.03,-15.02l0 -10.64c0,-10.12 -4.9,-15.03 -15.03,-15.03zm128.64 24.73l30.05 0 0 -9.7c0,-10.12 -4.9,-15.03 -15.03,-15.03 -10.12,0 -15.02,4.9 -15.02,15.03l0 9.7zm98.86 -24.73l0 40.69 20.35 0c10.12,0 15.03,-4.9 15.03,-15.02l0 -10.64c0,-10.12 -4.9,-15.03 -15.03,-15.03l-20.35 0zm519.2 24.73l30.05 0 0 -9.7c0,-10.12 -4.9,-15.03 -15.03,-15.03 -10.12,0 -15.02,4.9 -15.02,15.03l0 9.7z"/>
  </g>
 </g>
</svg>
