<?xml version="1.0" encoding="UTF-8"?>
<!DOCTYPE svg PUBLIC "-//W3C//DTD SVG 1.0//EN" "http://www.w3.org/TR/2001/REC-SVG-20010904/DTD/svg10.dtd">
<!-- Creator: CorelDRAW X7 -->
<svg xmlns="http://www.w3.org/2000/svg" xml:space="preserve" width="210mm" height="297mm" version="1.0" style="shape-rendering:geometricPrecision; text-rendering:geometricPrecision; image-rendering:optimizeQuality; fill-rule:evenodd; clip-rule:evenodd"
viewBox="0 0 21000 29700"
 xmlns:xlink="http://www.w3.org/1999/xlink">
 <defs>
  <style type="text/css">
   <![CDATA[
    .str0 {stroke:#BDBFC1;stroke-width:20}
    .fil2 {fill:#FEFEFE}
    .fil3 {fill:#373435}
    .fil1 {fill:#AB0011}
    .fil0 {fill:#C55D65}
   ]]>
  </style>
    <mask id="id0">
  <linearGradient id="id1" gradientUnits="userSpaceOnUse" x1="-13042.3" y1="1192.02" x2="-3442.28" y2="1192.02">
   <stop offset="0" style="stop-opacity:0; stop-color:white"/>
   <stop offset="1" style="stop-opacity:1; stop-color:white"/>
  </linearGradient>
     <rect style="fill:url(#id1)" x="-13252" y="-618" width="10020" height="3620"/>
    </mask>
    <mask id="id2">
  <linearGradient id="id3" gradientUnits="userSpaceOnUse" x1="-13042.3" y1="1777.72" x2="-3442.28" y2="1777.72">
   <stop offset="0" style="stop-opacity:0; stop-color:white"/>
   <stop offset="1" style="stop-opacity:1; stop-color:white"/>
  </linearGradient>
     <rect style="fill:url(#id3)" x="-13252" y="-32" width="10020" height="3620"/>
    </mask>
 </defs>
 <g id="Camada_x0020_1">
  <metadata id="CorelCorpID_0Corel-Layer"/>
  <g id="_1438539428256">
   <path class="fil0" style="mask:url(#id0)" d="M-11442 -608l6400 0 1800 1800 0 1800 -8200 0 -1800 -1800 0 0 1800 -1800z"/>
   <path class="fil1" style="mask:url(#id2)" d="M-13242 -22l8200 0 1800 1800 0 1800 -10000 0 0 -3600z"/>
   <path class="fil2 str0" d="M-14461 -586l9488 0 0 3600 -10000 0 0 -3089c0,-282 230,-511 512,-511z"/>
   <path class="fil3" d="M-13083 1075l0 459 -122 0 0 -641 138 0 261 460 0 -345 -109 0 0 -115 230 0 0 641 -134 0 -264 -459zm757 459c-43,0 -84,-8 -124,-25 -38,-16 -73,-39 -102,-68 -30,-29 -53,-63 -70,-101 -17,-40 -25,-82 -25,-125 0,-43 8,-86 25,-126 16,-38 39,-72 69,-102 30,-29 64,-52 102,-68 40,-17 82,-26 125,-26 44,0 86,9 126,26 38,16 73,39 102,68 30,30 53,64 69,102 18,40 26,83 26,126 0,43 -8,85 -26,125 -17,38 -40,72 -69,101 -30,29 -64,52 -103,68 -39,17 -81,25 -125,25zm573 -389c22,8 44,17 64,28 20,10 37,23 52,38 15,16 26,34 34,54 9,22 12,46 12,70 0,28 -4,55 -15,81 -10,23 -23,44 -42,62 -18,18 -40,31 -63,41 -26,10 -53,15 -80,15l-181 0 0 -112 181 0c21,0 40,-6 57,-20 17,-13 24,-32 24,-53 0,-14 -3,-29 -10,-41 -7,-11 -16,-20 -27,-27 -11,-7 -24,-13 -36,-17 -14,-5 -28,-10 -42,-15 -9,-4 -18,-8 -27,-12 -9,-4 -19,-8 -28,-12 -28,-15 -53,-35 -69,-63 -17,-28 -23,-60 -23,-92 0,-24 4,-48 14,-70 9,-21 21,-40 38,-56 16,-16 35,-28 56,-36 23,-10 47,-14 71,-15l202 0 0 110 -202 0c-17,0 -31,5 -42,17 -12,12 -17,26 -17,43 0,12 2,24 8,35 6,9 14,17 24,22 10,6 21,11 32,14 11,4 23,8 35,11zm414 0c23,8 44,17 65,28 19,10 37,23 52,38 15,16 26,34 34,54 9,22 12,46 12,70 0,28 -4,55 -15,81 -10,23 -24,44 -42,62 -18,18 -40,31 -64,41 -25,10 -52,15 -80,15l-180 0 0 -112 180 0c22,0 41,-6 58,-20 17,-13 24,-32 24,-53 0,-14 -3,-29 -11,-41 -6,-11 -15,-20 -26,-27 -11,-7 -24,-13 -37,-17 -13,-5 -27,-10 -41,-15 -9,-4 -18,-8 -27,-12 -9,-4 -19,-8 -28,-12 -28,-15 -53,-35 -70,-63 -16,-28 -22,-60 -22,-92 0,-24 4,-48 14,-70 9,-21 21,-40 38,-56 16,-16 35,-28 56,-36 23,-10 46,-14 71,-15l202 0 0 110 -202 0c-17,0 -31,5 -43,17 -11,12 -17,26 -17,43 0,12 3,24 9,35 6,9 14,17 24,22 10,6 20,11 32,14 11,4 23,8 34,11zm494 224l-175 0 0 165 -123 0 0 -641 111 0 450 641 -148 0 -115 -165zm1065 -102l-222 0 0 267 -123 0 0 -641 123 0 0 259 222 0 0 -143 -109 0 0 -116 230 0 0 641 -121 0 0 -267zm154 267l0 -641 121 0 0 641 -121 0zm371 -389c22,8 44,17 65,28 19,10 37,23 52,38 15,16 26,34 34,54 8,22 12,46 12,70 0,28 -5,55 -15,81 -10,23 -24,44 -42,62 -19,18 -40,31 -64,41 -25,10 -53,15 -80,15l-180 0 0 -112 180 0c21,0 41,-6 57,-20 17,-13 24,-32 24,-53 0,-14 -2,-29 -10,-41 -7,-11 -16,-20 -26,-27 -12,-7 -24,-13 -37,-17 -14,-5 -27,-10 -41,-15 -9,-4 -18,-8 -28,-12 -9,-4 -18,-8 -27,-12 -29,-15 -54,-35 -70,-63 -16,-28 -22,-60 -22,-92 0,-24 4,-48 13,-70 9,-21 22,-40 38,-56 17,-16 36,-28 57,-36 22,-10 46,-14 70,-15l203 0 0 110 -203 0c-16,0 -30,5 -42,17 -12,12 -17,26 -17,43 0,12 2,24 9,35 6,9 14,17 23,22 10,6 21,11 32,14 12,4 23,8 35,11zm429 -136l0 525 -122 0 0 -525 -117 0 0 -115 359 0 0 115 -120 0zm473 525c-43,0 -85,-8 -124,-25 -39,-16 -73,-39 -103,-68 -29,-29 -53,-63 -69,-101 -18,-40 -26,-82 -26,-125 0,-43 8,-86 25,-126 17,-38 40,-72 69,-102 30,-29 64,-52 103,-68 40,-17 82,-26 125,-26 43,0 85,9 125,26 39,16 73,39 103,68 29,30 52,64 69,102 17,40 25,83 25,126 0,43 -8,85 -25,125 -17,38 -40,72 -70,101 -29,29 -64,52 -102,68 -40,17 -82,25 -125,25zm476 -525l0 525 -122 0 0 -641 286 0c27,0 55,3 82,9 27,5 52,17 74,34 23,20 42,43 55,71 14,27 20,55 20,85 0,29 -6,57 -16,83 -10,27 -25,51 -45,71 -14,14 -31,27 -50,35 -17,7 -35,12 -53,16l172 237 -148 0 -233 -337 140 0c15,0 29,-2 43,-6 13,-4 25,-9 35,-18 10,-7 18,-17 24,-29 6,-13 8,-28 8,-42 0,-14 -2,-29 -9,-41 -6,-12 -14,-21 -24,-29 -10,-8 -22,-14 -34,-18 -14,-4 -28,-5 -43,-5l-162 0zm425 525l0 -641 121 0 0 641 -121 0zm450 -165l-176 0 0 165 -123 0 0 -641 111 0 450 641 -148 0 -114 -165zm-5324 -364c-27,0 -54,6 -80,17 -24,11 -46,26 -64,45 -19,19 -33,42 -43,67 -11,25 -16,53 -16,80 0,28 5,54 16,80 10,24 25,47 43,66 18,19 40,34 64,45 26,11 53,17 80,17 28,0 55,-6 80,-17 24,-11 46,-26 65,-45 18,-19 32,-42 43,-66 10,-26 15,-52 15,-80 0,-27 -4,-55 -15,-80 -10,-25 -24,-48 -43,-67 -18,-19 -40,-34 -64,-45 -26,-12 -53,-17 -81,-17zm1306 250l97 0 -97 -143 0 143zm2667 -250c-28,0 -55,6 -80,17 -24,11 -46,26 -65,45 -19,19 -33,42 -43,67 -10,25 -15,53 -15,80 0,28 5,54 16,80 10,24 24,47 43,66 18,19 40,34 64,45 25,11 52,17 80,17 28,0 54,-6 80,-17 24,-11 46,-26 64,-45 18,-19 33,-42 43,-66 11,-26 16,-52 16,-80 0,-27 -5,-55 -15,-80 -11,-25 -25,-48 -43,-67 -19,-19 -40,-34 -65,-45 -25,-12 -52,-17 -80,-17zm1175 250l97 0 -97 -143 0 143z"/>
  </g>
 </g>
</svg>
