<?xml version="1.0" encoding="UTF-8"?>
<!DOCTYPE svg PUBLIC "-//W3C//DTD SVG 1.0//EN" "http://www.w3.org/TR/2001/REC-SVG-20010904/DTD/svg10.dtd">
<!-- Creator: CorelDRAW X7 -->
<svg xmlns="http://www.w3.org/2000/svg" xml:space="preserve" width="100px" height="95px" version="1.0" style="shape-rendering:geometricPrecision; text-rendering:geometricPrecision; image-rendering:optimizeQuality; fill-rule:evenodd; clip-rule:evenodd"
viewBox="0 0 10 10"
 xmlns:xlink="http://www.w3.org/1999/xlink">
 <defs>
  <style type="text/css">
   <![CDATA[
    .str0 {stroke:black;stroke-width:0.108633}
    .str1 {stroke:#ED3237;stroke-width:0.0413893}
    .str2 {stroke:#AB0011;stroke-width:0.0413893}
    .fil2 {fill:none}
    .fil0 {fill:#0D0D0D}
    .fil3 {fill:#AB0011}
    .fil1 {fill:#E30016}
   ]]>
  </style>
 </defs>
 <g id="Camada_x0020_1">
  <metadata id="CorelCorpID_0Corel-Layer"/>
  <g id="_1758642250208">
   <g>
    <g>
     <path class="fil0" d="M9 8l1 1 0 0 -1 -2 0 0 0 2 0 0 0 -1z"/>
     <path class="fil0" d="M1 7l0 2 1 0 0 -1 0 0c0,0 0,0 0,1l0 0 0 0 0 0c0,-1 0,-1 0,-1l0 0 0 0c0,0 0,0 0,0 0,0 0,-1 0,-1l-1 0zm1 1c0,0 0,0 0,0l0 0 0 0 0 0c0,0 0,0 0,0zm1 1l1 0 0 -1c0,0 0,0 0,0 0,0 0,0 0,0l0 1 0 0 0 -1c0,0 0,-1 0,-1 0,0 0,0 0,1l0 0 -1 0c0,-1 0,-1 0,-1 0,0 0,1 0,1l0 1 0 0 0 -1c0,0 0,0 0,0 0,0 0,0 0,0l0 1zm2 -1l0 0c0,1 0,1 0,1 0,0 1,0 1,-1l0 0c0,0 -1,-1 -1,-1 0,0 0,1 0,1zm0 0c0,0 0,0 0,0l0 0c0,0 0,0 0,0 0,0 0,0 0,0l0 0c0,0 0,0 0,0zm1 1l0 0 0 -1c0,0 0,0 0,0 1,0 1,0 1,0l0 1 0 0 0 -1c0,0 0,-1 -1,-1 0,0 0,1 0,1l0 1zm1 0l0 -2 0 0 0 2 0 0zm2 0l0 -1 -1 0c0,0 0,0 0,0l0 0c0,0 0,0 0,0l1 0 0 -1 -1 0c0,0 0,1 0,1l0 0c0,1 0,1 0,1l1 0z"/>
     <path class="fil0" d="M1 8l-1 1 0 0 1 -2 0 0 0 2 0 0 0 -1z"/>
    </g>
    <ellipse class="fil0 str0" cx="9" cy="9"/>
   </g>
   <g>
    <path class="fil1" d="M8 1c0,1 1,1 1,1l0 0c0,0 -1,-1 -1,-1 0,0 0,0 -1,0 0,-1 -1,-1 -2,-1l-1 0c0,0 -1,1 -2,1 0,0 0,1 -1,2l0 0 0 0c0,0 1,-1 1,-2l0 0 0 0c1,0 1,-1 2,-1 0,0 0,0 0,0 0,0 1,0 1,0l0 0 0 0c1,0 2,0 2,1 1,0 1,0 1,0 0,0 0,0 0,0zm-7 3l0 0 0 0c0,0 1,0 1,0 0,-1 0,-1 0,-1 0,-1 0,-1 0,-2 1,0 1,0 1,0l0 0 0 0c0,0 1,-1 2,-1 0,0 0,0 0,0 1,0 1,1 2,1l0 0 0 0c0,0 1,0 1,1 0,0 0,0 0,1l0 0 0 0 0 0 0 0c0,0 0,-1 0,-1 0,0 -1,-1 -1,-1l0 0 0 0c0,0 0,0 0,0l0 0 0 0c0,0 0,0 0,0 0,1 1,1 1,1 0,0 0,0 0,0l0 0 0 0 0 0 0 0 0 0c0,0 0,0 0,0l0 0 0 0c0,1 0,1 0,1l0 0 0 1c0,0 0,0 0,0 0,0 0,0 0,1 0,0 -1,1 -1,2 0,0 0,0 0,0 0,0 1,-1 1,-1 0,-1 0,-1 0,-1 0,0 0,0 0,-1 0,0 0,0 0,0 0,0 0,0 0,0l0 0 0 0c0,-1 0,-1 0,-1l0 0 0 0c0,0 0,0 0,0 0,-1 0,-1 0,-2 0,0 -1,0 -1,0l0 0 0 0c0,-1 -2,-1 -2,-1 0,0 0,0 0,0l0 0 0 0c0,0 0,0 0,0 0,0 0,0 0,0 -1,0 -1,0 -1,0l0 0 0 0c0,0 -1,1 -2,2l0 0 0 0c0,0 -1,2 -1,2zm6 -3c-1,0 -1,0 -2,0 0,0 0,0 0,0 0,0 0,0 1,0 0,0 0,0 1,0l0 0 0 0 0 0 0 0c0,0 0,0 0,0zm-2 0l0 0c-1,0 -1,0 -2,0 0,0 0,0 0,1 -1,0 -1,0 -1,0 0,1 0,1 0,2l0 0 0 0c0,0 -1,0 -1,0l0 0 0 1c0,-1 1,-1 1,-1l0 -2c0,0 1,0 1,-1l0 0 0 0c0,0 1,0 1,0 0,0 0,0 0,0 0,0 0,0 0,0 0,0 0,0 -1,0l0 0 0 0 0 0c1,0 1,0 1,0 0,0 1,0 1,0 0,0 0,0 0,0zm1 0c0,0 0,0 0,0l0 0c0,0 0,0 0,0 0,0 0,0 -1,0 1,0 1,0 1,0zm1 1c0,0 0,0 0,0l0 0 0 0c0,0 1,1 1,1l0 1 0 0c0,0 0,0 0,1 -1,0 -1,0 -1,0 0,0 0,0 0,0 0,1 0,1 0,2l0 0 0 0c0,-1 0,-1 0,-1 0,-1 1,-1 1,-2 0,0 0,0 0,-1 0,0 0,0 0,0 0,0 0,0 0,0l0 0 0 0c0,0 -1,-1 -1,-2l0 1zm-3 -1c0,0 -1,0 -1,1 0,0 -1,1 -1,1 0,0 0,1 0,1l0 0 0 0c0,0 0,1 -1,1l0 0 0 0c1,0 1,0 1,0 0,-1 0,-1 0,-1 0,-1 1,-2 2,-3l0 0 0 0c0,0 0,0 0,0 0,0 0,0 0,0zm4 2c0,0 0,0 -1,0 0,-1 0,-1 0,-1l0 0 0 0c0,0 0,0 0,0l0 0 0 0c0,0 0,1 0,1l0 0 0 0c0,0 0,0 0,0l0 0 0 0c0,0 0,-1 0,-1 0,0 0,0 -1,0l0 0c1,0 1,0 1,1l0 0 0 0c0,0 0,0 0,0l0 0 0 0c0,1 0,1 0,1 0,1 0,1 0,1l-1 1 0 0c0,0 0,0 0,1l0 0 0 0c0,0 0,-1 0,-1l0 0 0 0 0 0c0,0 0,1 0,1l0 0 0 -1 0 0 0 0 0 0c0,0 0,1 0,1l0 0 0 0 0 0 0 0c0,0 1,-1 1,-1l0 0 0 0c0,0 0,-1 0,-1l0 0 0 0c0,0 0,0 0,0 0,0 0,1 0,1 0,0 0,0 0,1l0 0 0 0c0,0 0,-1 0,-2 0,0 0,0 0,0 0,-1 0,-1 1,-1 0,0 0,0 0,-1 0,0 0,0 0,0zm-2 -2c0,0 0,0 0,0l0 0 0 0c0,0 0,0 0,0 0,0 0,0 0,0zm-2 0c0,0 0,0 0,0 0,1 -1,1 -1,1 0,0 0,0 0,1l0 0 0 0c0,0 0,0 0,0 0,1 -1,2 -2,3l0 0 0 0c1,-1 1,-1 1,-1l1 -1c0,-1 0,-1 0,-2 0,0 1,0 1,0 0,-1 0,-1 0,-1 0,0 0,0 0,0zm2 1c1,0 1,1 1,2l0 0 0 0c0,0 0,0 0,0 0,0 0,0 0,0l0 0 0 0c0,0 0,0 0,1 0,0 0,0 -1,0 0,0 -1,1 -1,2 0,0 0,0 0,0l0 0c1,-1 2,-2 2,-3l0 0c0,-1 0,-1 0,-1 0,0 0,-1 -1,-1l0 0 0 0zm-2 0c0,0 0,0 0,0 0,0 -1,0 -1,0l0 0 0 0c0,1 0,1 0,1 0,1 0,1 -1,2 0,0 0,1 -1,1l0 0 0 0c1,-1 2,-1 2,-3l0 0 0 0c0,0 0,0 0,-1 1,0 1,0 1,0 0,0 0,0 0,0 0,0 0,0 0,0 0,0 0,0 0,0 0,0 0,0 0,0zm5 1c0,0 0,0 0,0l0 0 0 0c0,0 0,0 0,0 0,0 0,0 0,0 0,1 0,1 0,1l0 0 0 -2c0,0 -1,0 -1,0l0 0 0 0c0,0 0,0 0,0 0,0 1,0 1,0l0 0 0 0c0,1 0,1 0,1zm-5 -1c0,0 0,0 0,0 0,0 -1,1 -1,1l0 0 0 0c0,1 0,1 0,1 0,0 0,0 0,0 0,1 0,1 0,1 0,0 -1,1 -2,1l0 0c1,0 2,-1 2,-1 0,0 0,-1 0,-1 0,0 0,0 0,-1 0,0 1,-1 1,-1 0,0 0,0 0,0l0 0c0,0 0,0 0,0zm2 0c0,1 0,1 0,1l0 0 0 0c0,0 1,0 1,0l0 1 0 0c0,0 0,0 -1,0 0,0 0,1 0,1 0,0 -1,1 -1,2l0 0 0 0c0,0 1,-1 1,-1 0,-1 0,-1 0,-1 0,0 0,0 1,0 0,-1 0,-1 0,-1l0 0c0,-1 0,-1 -1,-1 0,-1 0,-1 0,-1 0,0 0,0 0,0 0,0 0,0 0,0zm1 2l0 0 0 0c0,0 0,0 0,0l0 0 0 0 0 0zm-1 -1c0,0 0,0 0,0l0 0 0 0c0,1 0,1 0,2 0,0 0,0 0,0 0,1 0,1 0,1 0,0 0,0 0,0l0 -1c0,0 0,-1 0,-2l0 0c0,0 0,0 0,0 0,0 0,0 0,0zm-1 3c0,0 0,1 0,1 0,0 0,0 0,0l0 0c0,0 0,-1 0,-1 0,0 0,0 0,0 0,0 0,0 0,0zm-1 -4c0,0 0,1 0,1l0 0 0 0c0,0 -1,1 -1,2l0 0 0 0c0,0 0,0 0,0l0 0 -1 1 0 0c0,0 0,0 -1,1l0 0 0 0c1,0 1,-1 1,-1 0,0 1,0 1,-1 0,0 0,-1 1,-1 0,0 0,-1 0,-1l0 0 0 0c0,-1 0,-1 0,-1zm0 1c0,1 0,1 0,1 0,0 0,0 0,0l0 0 0 0c0,1 -1,1 -1,1 0,1 0,1 0,1 -1,0 -1,1 -1,1 0,0 0,0 0,0l0 0 1 -1 1 -1c0,0 0,0 0,-1 0,0 0,0 0,0 0,0 0,0 0,-1zm0 3l0 0c0,0 0,0 0,0 0,0 0,0 0,0l0 0 0 0c0,0 0,1 0,1 0,0 0,0 0,0l0 0c0,0 0,0 0,0l0 0 0 0c0,0 0,0 0,-1 0,0 0,0 0,0zm1 0c0,0 -1,1 -1,1l0 0 0 0 1 -1c0,0 0,0 0,0 0,0 0,0 0,0l0 0c0,0 0,0 0,0zm1 -1c0,-1 0,-1 0,-2 0,0 0,0 0,0 0,0 0,0 0,0 0,0 0,0 0,0 0,0 0,0 0,0l0 0 0 0c0,1 0,1 0,1 0,0 0,0 0,0l0 0 0 0c0,0 0,0 0,0 0,0 0,0 0,0 0,0 0,1 0,1zm-2 -1c0,0 0,1 0,1l0 0 0 0c0,0 -1,1 -1,1 0,0 -1,0 -1,1 0,0 0,0 0,0l0 0c1,-1 1,-1 1,-1l0 0 0 0c1,0 1,-1 1,-1 0,-1 0,-1 0,-1 0,0 0,0 0,0zm1 0c0,0 0,1 -1,1 0,0 0,1 0,1l0 0c0,0 1,0 1,-1 0,0 0,0 0,0 0,0 0,0 0,0l0 0 0 0 -1 0 0 0c1,0 1,0 1,0l0 0 0 0c0,0 0,0 0,0 0,0 0,-1 0,-1l0 0c0,0 0,0 0,0zm-1 0c0,0 0,0 0,0 0,1 0,1 0,1l0 0 0 0c0,0 0,1 -1,1l0 0 0 0c0,0 0,1 0,1l0 0 0 0c0,0 0,0 0,0l0 0 0 0c0,-1 1,-1 1,-2l0 0 0 0 0 0c0,1 0,1 -1,2l0 0 0 0c1,0 1,-1 1,-1l0 0 0 0c0,0 0,-1 0,-2 0,0 0,0 0,0zm-2 -1c0,1 0,1 -1,2l0 0 0 0c0,0 1,0 1,0 0,-1 0,-1 0,-1l0 0c0,-1 0,-1 0,-1l0 0zm7 1l0 0c-1,0 -1,0 -1,0 0,0 0,0 0,0l0 0 0 0c0,1 0,1 0,1 0,0 0,0 0,0 0,1 0,1 0,2l0 0c0,0 0,0 0,0l0 0c0,0 0,0 0,0l0 0 0 0c0,-1 0,-2 0,-2l0 0 0 0c0,0 0,0 0,-1 1,0 1,0 1,0l0 0 0 0zm0 0l0 1 0 0c0,1 0,1 -1,2l0 0 0 0c1,-1 1,-1 1,-1l0 -2 0 0zm-1 1c0,0 0,0 0,0 0,0 0,0 0,0 0,1 0,1 0,1 0,0 0,0 0,1l0 0 0 0c0,-1 0,-1 0,-2l0 0 0 0c1,0 1,0 1,0l0 0 -1 0zm0 1c0,0 0,0 0,0 0,0 -1,0 -1,1 0,0 0,0 0,0l0 0c1,-1 1,-1 1,-1l0 0 0 0zm-5 0c0,0 0,0 0,0 0,0 0,0 0,0l0 0zm6 1c0,0 0,0 0,0 0,0 0,0 0,0 0,0 0,0 0,0l0 0 0 0z"/>
    <g>
     <path class="fil2 str1" d="M4 1c0,0 0,0 1,0 0,0 0,-1 0,-1 0,0 0,1 1,1l0 0 0 0c0,0 0,0 0,0 0,0 0,0 0,0l0 0 0 0c0,0 0,0 0,0l0 0 0 0c0,0 0,0 0,0l0 0 0 0c0,0 0,0 1,0 0,0 0,0 0,0 0,0 0,0 0,0l0 0 0 0 0 0c0,0 0,0 0,0l0 0 0 0 0 0c0,0 0,0 0,0l0 0 0 0 0 0 0 1 0 0 -1 0 0 0c0,0 0,0 0,0 0,0 0,1 0,1 0,0 0,0 0,0 0,0 0,0 0,0 0,0 0,0 0,0 0,0 0,1 0,1 0,0 0,0 0,0l0 0 0 0c0,0 0,0 0,0 0,0 0,0 0,0 0,0 0,1 0,1 0,0 0,0 0,1 0,0 -1,0 -1,0 0,0 0,0 0,0l0 0c0,0 0,0 0,0 -1,0 -1,0 -1,0 0,0 1,0 1,0 0,0 0,0 0,-1 0,0 0,0 0,0 0,0 0,0 0,0 0,0 0,-1 0,-1l0 0c0,0 0,0 0,0 -1,0 -1,0 -1,0 0,0 0,0 0,0 0,0 0,0 0,-1 0,0 0,0 0,0 0,0 0,0 0,0 0,0 0,0 0,0l0 0 0 0c0,-1 0,-1 0,-1l0 0c0,0 0,0 0,0 0,0 0,0 0,0 0,0 0,0 0,0 0,0 0,0 0,0 0,-1 0,-1 0,-1z"/>
     <path class="fil3 str2" d="M4 2l0 0c0,0 0,0 0,0 0,-1 0,-1 0,-1 0,0 0,0 1,0 0,0 0,0 0,0 0,0 0,0 1,0l0 0 0 0c0,0 0,0 0,0 0,0 0,0 0,0l0 0 0 0c0,0 0,1 0,1l0 0c0,0 0,0 0,0l0 0 0 0c0,0 0,-1 1,-1 0,0 0,0 0,0l0 0 0 0c0,0 0,0 0,0l0 0 0 0c0,0 0,0 0,0l0 0 0 0 0 0 0 0 0 0c0,0 0,0 0,0l0 0 0 0c0,0 0,0 0,0l0 0c0,0 0,0 0,0l0 0 0 0c0,0 0,0 0,0l0 0 0 0 0 0 0 0c0,0 0,0 0,0l0 0 0 0 0 0 0 0c0,0 0,0 0,0l0 0 0 0 0 0 0 0 0 0 0 0c0,0 0,0 0,0l0 0 0 0 0 0 0 0 0 0c0,0 0,0 0,0l0 0 0 0c0,0 0,0 0,0l-1 1 0 0c0,0 0,0 0,0 0,0 0,1 0,1 0,0 0,0 0,-1 0,0 0,1 0,1 0,0 0,0 0,0 0,0 0,0 0,0 0,0 0,1 0,1 0,0 0,0 0,0l0 0 0 0c0,0 0,0 0,0 0,0 0,0 0,0 0,0 0,0 0,0 0,0 0,1 -1,1 0,0 0,0 0,1 0,0 0,0 0,0 0,0 0,0 0,0l0 0 0 0c0,0 0,0 0,0 0,0 0,0 0,0 0,0 -1,0 -1,0 0,0 1,0 1,0 0,0 0,0 0,-1 0,0 0,0 0,0 0,0 0,0 0,0 0,0 0,-1 0,-1 0,0 0,0 0,0 0,0 0,0 -1,0 0,0 0,0 0,0 0,0 0,-1 0,-1 0,0 0,0 0,0 0,0 0,0 0,0 0,0 0,0 0,0l0 0 0 0c0,-1 0,-1 0,-1 0,0 0,0 1,0 -1,0 -1,0 -1,0 0,0 0,0 0,0zm0 0c0,0 0,0 0,0l0 0c0,0 0,0 0,0z"/>
    </g>
   </g>
   <path class="fil0" d="M0 9l0 0 0 0 0 0c0,0 0,0 0,0l1 0 0 1 -1 0c0,0 0,0 0,-1l0 0c0,0 0,0 0,0l1 0 0 0 -1 0c0,0 0,0 0,0zm1 1l0 0 0 -1 0 0c0,0 0,0 0,0 0,0 0,0 0,0l0 0c0,0 0,0 0,0 0,0 0,0 0,0l0 0 0 0 0 0c0,0 0,0 0,0 0,0 0,0 0,0l0 0c0,0 0,0 0,0 0,1 0,1 0,1zm1 -1l0 0 0 0 0 0c0,0 0,0 0,0l0 0c0,0 0,0 0,0l0 0 0 1 0 0c0,0 -1,0 -1,-1l0 0c0,0 1,0 1,0zm0 0c0,0 0,0 0,0 1,0 1,0 1,0l0 0c0,1 0,1 -1,1 0,0 0,0 0,-1l0 0zm1 0l0 0 0 1 0 0c0,0 0,0 0,-1l0 0 0 0 0 0c0,0 0,0 0,0zm1 0l0 0 0 1 0 0 0 -1c0,0 0,0 0,0 0,0 0,0 0,0l0 1 0 0 0 -1zm1 0c0,0 0,0 0,0l0 0c0,1 0,1 0,1l-1 0 0 -1 1 0zm0 0l1 0 0 0 -1 0c0,0 0,0 1,0l0 0 0 1 0 0c-1,0 -1,0 -1,-1l0 0c0,0 0,0 1,0l0 0 0 0 0 0c-1,0 -1,0 -1,0zm2 0c0,0 0,0 0,0 0,0 0,0 0,0l0 1 0 0 0 -1c0,0 0,0 0,0 0,0 0,0 0,0l0 1 -1 0 0 -1c0,0 0,0 0,0 0,0 0,0 0,0l0 1 0 0 0 -1c0,0 0,0 0,0 0,0 0,0 1,0zm0 0l0 0 0 0 0 0c0,0 0,0 0,0 0,0 0,0 0,0l0 0 1 0 0 0c0,1 -1,1 -1,1 0,0 0,0 0,-1zm0 0l0 0 0 0 0 0 0 0zm1 1l0 0 0 -1 0 0c0,0 0,0 0,0 0,0 0,0 0,0l0 0c0,0 0,0 0,0 0,0 0,0 0,0l0 0 0 0 0 0c0,0 0,0 0,0 0,0 0,0 0,0l0 0c0,0 0,0 0,0 0,1 0,1 0,1zm1 0l0 0 0 -1 0 0 0 1zm0 -1l0 0 0 0 0 0c0,0 0,0 0,0l0 0c0,0 0,0 0,0l0 0 0 1 0 0c0,0 0,0 0,-1l0 0c0,0 0,0 0,0zm1 0l0 0 0 1 0 0 0 -1c0,0 0,0 0,0 0,0 0,0 0,0l0 1 0 0 0 -1zm-8 0c0,0 0,0 0,0l0 0c0,0 0,0 0,0 0,0 0,0 0,0l0 0c0,0 0,0 0,0zm2 0l0 0 0 0c0,0 0,0 0,0 0,0 0,0 0,0l0 0zm1 0l0 0 0 0c0,0 0,0 0,0l0 0c0,0 0,0 0,0l0 0zm5 0l0 0 0 0c0,0 0,0 0,0 0,0 0,0 0,0l0 0z"/>
  </g>
 </g>
</svg>
