<?xml version="1.0" encoding="UTF-8"?>
<!DOCTYPE svg PUBLIC "-//W3C//DTD SVG 1.0//EN" "http://www.w3.org/TR/2001/REC-SVG-20010904/DTD/svg10.dtd">
<!-- Creator: CorelDRAW X7 -->
<svg xmlns="http://www.w3.org/2000/svg" xml:space="preserve" width="210mm" height="297mm" version="1.0" style="shape-rendering:geometricPrecision; text-rendering:geometricPrecision; image-rendering:optimizeQuality; fill-rule:evenodd; clip-rule:evenodd"
viewBox="0 0 21000 29700"
 xmlns:xlink="http://www.w3.org/1999/xlink">
 <defs>
  <style type="text/css">
   <![CDATA[
    .str0 {stroke:#BDBFC1;stroke-width:20}
    .fil2 {fill:#FEFEFE}
    .fil3 {fill:#373435}
    .fil1 {fill:#AB0011}
    .fil0 {fill:#C55D65}
   ]]>
  </style>
    <mask id="id0">
  <linearGradient id="id1" gradientUnits="userSpaceOnUse" x1="6089.76" y1="4600.2" x2="15689.8" y2="4600.2">
   <stop offset="0" style="stop-opacity:0; stop-color:white"/>
   <stop offset="1" style="stop-opacity:1; stop-color:white"/>
  </linearGradient>
     <rect style="fill:url(#id1)" x="5880" y="2790" width="10020" height="3620"/>
    </mask>
    <mask id="id2">
  <linearGradient id="id3" gradientUnits="userSpaceOnUse" x1="6089.76" y1="5185.9" x2="15689.8" y2="5185.9">
   <stop offset="0" style="stop-opacity:0; stop-color:white"/>
   <stop offset="1" style="stop-opacity:1; stop-color:white"/>
  </linearGradient>
     <rect style="fill:url(#id3)" x="5880" y="3376" width="10020" height="3620"/>
    </mask>
 </defs>
 <g id="Camada_x0020_1">
  <metadata id="CorelCorpID_0Corel-Layer"/>
  <g id="_1438546321104">
   <path class="fil0" style="mask:url(#id0)" d="M7690 2800l6400 0 1800 1800 0 1800 -8200 0 -1800 -1800 0 0 1800 -1800z"/>
   <path class="fil1" style="mask:url(#id2)" d="M5890 3386l8200 0 1800 1800 0 1800 -10000 0 0 -3600z"/>
   <path class="fil2 str0" d="M4671 2822l9489 0 0 3600 -10000 0 0 -3089c0,-281 229,-511 511,-511z"/>
   <path class="fil3" d="M6049 4483l0 459 -122 0 0 -640 138 0 261 459 0 -345 -109 0 0 -114 230 0 0 640 -134 0 -264 -459zm757 459c-43,0 -84,-8 -124,-25 -38,-16 -73,-39 -102,-68 -30,-29 -53,-63 -70,-101 -17,-40 -25,-81 -25,-125 0,-43 8,-85 25,-125 16,-39 39,-73 69,-102 30,-30 64,-53 102,-69 40,-17 82,-25 125,-25 44,0 86,8 126,25 38,16 73,39 102,69 30,29 53,63 69,101 18,40 26,83 26,126 0,44 -8,85 -26,125 -16,38 -40,72 -69,101 -30,29 -64,52 -103,68 -39,17 -81,25 -125,25zm573 -389c22,8 44,17 64,28 20,10 37,23 52,39 15,15 26,33 34,53 9,22 12,47 12,71 0,27 -4,54 -15,80 -10,23 -23,45 -42,62 -18,18 -40,32 -63,41 -26,10 -53,15 -80,15l-181 0 0 -112 181 0c21,0 40,-6 57,-19 17,-14 24,-32 24,-54 0,-14 -3,-29 -10,-41 -7,-11 -16,-20 -27,-27 -11,-7 -24,-13 -36,-17 -14,-5 -28,-10 -42,-15 -9,-4 -18,-8 -27,-12 -9,-4 -18,-8 -28,-12 -28,-15 -53,-35 -69,-63 -17,-28 -23,-59 -23,-91 0,-25 4,-49 14,-71 9,-21 21,-40 38,-56 16,-16 35,-28 57,-36 22,-9 46,-14 70,-14l202 0 0 109 -202 0c-17,0 -31,5 -42,17 -12,12 -17,26 -17,43 0,12 2,25 9,35 6,9 13,17 23,23 10,6 21,10 32,14 11,3 23,7 35,10zm415 0c22,8 43,17 64,28 19,10 37,23 52,39 15,15 26,33 34,53 9,22 12,47 12,71 0,27 -4,54 -15,80 -10,23 -24,45 -42,62 -18,18 -40,32 -63,41 -26,10 -53,15 -81,15l-180 0 0 -112 180 0c22,0 41,-6 58,-19 17,-14 24,-32 24,-54 0,-14 -3,-29 -10,-41 -7,-11 -16,-20 -27,-27 -11,-7 -24,-13 -36,-17 -14,-5 -28,-10 -42,-15 -9,-4 -18,-8 -27,-12 -9,-4 -19,-8 -28,-12 -28,-15 -53,-35 -70,-63 -16,-28 -22,-59 -22,-91 0,-25 4,-49 14,-71 9,-21 21,-40 38,-56 16,-16 35,-28 56,-36 23,-9 46,-14 71,-14l202 0 0 109 -202 0c-17,0 -31,5 -42,17 -12,12 -18,26 -18,43 0,12 3,25 9,35 6,9 14,17 24,23 10,6 21,10 32,14 11,3 23,7 35,10zm494 224l-176 0 0 165 -123 0 0 -640 111 0 450 640 -148 0 -114 -165zm1064 -102l-222 0 0 267 -123 0 0 -640 123 0 0 258 222 0 0 -142 -109 0 0 -116 230 0 0 640 -121 0 0 -267zm154 267l0 -640 121 0 0 640 -121 0zm371 -389c22,8 44,17 65,28 19,10 37,23 52,39 15,15 26,33 34,53 9,22 12,47 12,71 0,27 -5,54 -15,80 -10,23 -24,45 -42,62 -19,18 -40,32 -64,41 -25,10 -52,15 -80,15l-180 0 0 -112 180 0c21,0 41,-6 57,-19 17,-14 24,-32 24,-54 0,-14 -2,-29 -10,-41 -7,-11 -15,-20 -26,-27 -12,-7 -24,-13 -37,-17 -14,-5 -27,-10 -41,-15 -9,-4 -18,-8 -28,-12 -9,-4 -18,-8 -27,-12 -29,-15 -54,-35 -70,-63 -16,-28 -22,-59 -22,-91 0,-25 4,-49 13,-71 9,-21 22,-40 38,-56 17,-16 36,-28 57,-36 22,-9 46,-14 70,-14l203 0 0 109 -203 0c-16,0 -30,5 -42,17 -12,12 -17,26 -17,43 0,12 2,25 9,35 6,9 14,17 23,23 10,6 21,10 32,14 12,3 23,7 35,10zm429 -135l0 524 -121 0 0 -524 -118 0 0 -115 359 0 0 115 -120 0zm473 524c-43,0 -85,-8 -124,-25 -39,-16 -73,-39 -103,-68 -29,-29 -52,-63 -69,-101 -18,-40 -26,-81 -26,-125 0,-43 8,-85 25,-125 17,-39 40,-73 69,-102 30,-30 65,-53 103,-69 40,-17 82,-25 125,-25 43,0 85,8 125,25 39,16 73,39 103,69 29,29 52,63 69,101 17,40 25,83 25,126 0,44 -8,85 -25,125 -17,38 -40,72 -70,101 -29,29 -64,52 -102,68 -40,17 -82,25 -125,25zm477 -525l0 525 -123 0 0 -640 286 0c27,0 55,2 82,8 27,5 52,17 74,35 23,19 42,42 55,70 14,27 20,56 20,86 0,28 -6,56 -16,83 -10,26 -25,50 -45,70 -14,14 -31,27 -50,35 -17,7 -35,12 -53,16l172 237 -148 0 -233 -337 140 0c15,0 29,-2 43,-6 13,-4 25,-9 35,-17 10,-8 18,-18 24,-30 6,-13 8,-28 8,-42 0,-14 -2,-29 -9,-41 -6,-11 -14,-21 -24,-29 -10,-8 -22,-14 -34,-17 -14,-4 -28,-6 -43,-6l-161 0zm424 525l0 -640 121 0 0 640 -121 0zm450 -165l-176 0 0 165 -123 0 0 -640 111 0 450 640 -148 0 -114 -165zm-5324 -364c-27,0 -54,6 -79,17 -25,11 -47,26 -65,45 -19,20 -33,42 -43,67 -11,26 -16,53 -16,81 0,27 5,54 16,79 10,25 25,47 43,66 19,19 40,34 65,45 25,12 52,17 79,17 28,0 55,-5 80,-17 24,-11 46,-26 65,-45 18,-19 32,-41 43,-66 10,-25 16,-52 16,-79 0,-28 -5,-55 -16,-81 -10,-25 -24,-47 -43,-67 -18,-19 -40,-34 -64,-45 -26,-11 -53,-17 -81,-17zm1306 250l97 0 -97 -143 0 143zm2667 -250c-28,0 -55,6 -80,17 -24,11 -46,26 -65,45 -18,20 -33,42 -43,67 -10,26 -15,53 -15,81 0,27 5,54 16,79 10,25 24,47 43,66 18,19 40,34 64,45 25,12 52,17 80,17 28,0 54,-5 80,-17 24,-11 46,-26 64,-45 19,-19 33,-41 43,-66 11,-25 16,-52 16,-79 0,-28 -5,-55 -15,-81 -10,-25 -25,-47 -43,-67 -18,-19 -40,-34 -64,-45 -26,-11 -53,-17 -81,-17zm1175 250l97 0 -97 -143 0 143z"/>
  </g>
 </g>
</svg>
