<?xml version="1.0" encoding="UTF-8"?>
<!DOCTYPE svg PUBLIC "-//W3C//DTD SVG 1.0//EN" "http://www.w3.org/TR/2001/REC-SVG-20010904/DTD/svg10.dtd">
<!-- Creator: CorelDRAW X7 -->
<svg xmlns="http://www.w3.org/2000/svg" xml:space="preserve" width="117.402mm" height="41.857mm" version="1.0" style="shape-rendering:geometricPrecision; text-rendering:geometricPrecision; image-rendering:optimizeQuality; fill-rule:evenodd; clip-rule:evenodd"
viewBox="0 0 13102 4671"
 xmlns:xlink="http://www.w3.org/1999/xlink">
 <defs>
  <style type="text/css">
   <![CDATA[
    .str0 {stroke:#BDBFC1;stroke-width:22.3193}
    .str1 {stroke:#373435;stroke-width:22.3193}
    .fil2 {fill:#FEFEFE}
    .fil3 {fill:#373435}
    .fil1 {fill:#AB0011}
    .fil0 {fill:#C55D65}
   ]]>
  </style>
    <mask id="id0">
  <linearGradient id="id1" gradientUnits="userSpaceOnUse" x1="2165.22" y1="2008.74" x2="12878.5" y2="2008.74">
   <stop offset="0" style="stop-opacity:0; stop-color:white"/>
   <stop offset="1" style="stop-opacity:1; stop-color:white"/>
  </linearGradient>
     <rect style="fill:url(#id1)" x="1931" y="-11" width="11182" height="4040"/>
    </mask>
    <mask id="id2">
  <linearGradient id="id3" gradientUnits="userSpaceOnUse" x1="2165.22" y1="2662.36" x2="12878.5" y2="2662.36">
   <stop offset="0" style="stop-opacity:0; stop-color:white"/>
   <stop offset="1" style="stop-opacity:1; stop-color:white"/>
  </linearGradient>
     <rect style="fill:url(#id3)" x="1931" y="642" width="11182" height="4040"/>
    </mask>
 </defs>
 <g id="Camada_x0020_1">
  <metadata id="CorelCorpID_0Corel-Layer"/>
  <g id="_1438547401232">
   <path class="fil0" style="mask:url(#id0)" d="M3951 0l7142 0 2009 2009 0 2008 -9151 0 -2009 -2008 0 0 2009 -2009z"/>
   <path class="fil1" style="mask:url(#id2)" d="M1942 654l9151 0 2009 2008 0 2009 -11160 0 0 -4017z"/>
   <path class="fil2 str0" d="M581 24l10590 0 0 4017 -11160 0 0 -3447c0,-313 257,-570 570,-570z"/>
   <path class="fil3 str1" d="M2604 1680l0 705 126 0 0 -588 51 0c17,0 34,1 51,3 17,2 33,6 48,14 14,7 25,17 34,31 10,15 13,34 13,53 0,18 -3,38 -14,53 -9,13 -22,23 -36,30 -16,7 -32,11 -49,13 -18,2 -35,3 -53,3l0 118 14 0c18,0 36,0 55,-1 17,-1 33,-4 50,-8 16,-3 32,-9 47,-16 17,-8 32,-19 46,-31 23,-20 40,-44 51,-73 11,-28 16,-58 16,-88 0,-31 -5,-61 -16,-89 -11,-28 -28,-52 -51,-72 -14,-12 -29,-23 -46,-31 -15,-8 -31,-13 -47,-17 -17,-4 -33,-6 -50,-7 -19,-1 -37,-2 -55,-2l-185 0zm1068 705l-191 -262 4 0c22,-5 43,-11 63,-20 20,-8 38,-22 54,-37 22,-22 37,-48 48,-77 12,-29 18,-59 18,-90 0,-33 -7,-64 -21,-94 -15,-30 -35,-55 -61,-76 -24,-19 -50,-32 -80,-38 -30,-6 -60,-9 -90,-9l-314 0 0 703 126 0 0 -586 186 0c17,0 33,2 49,7 15,4 29,11 41,20 12,10 21,21 28,34 8,15 11,32 11,49 0,17 -3,34 -11,50 -6,13 -15,25 -27,34 -13,10 -27,16 -42,21 -16,4 -32,6 -49,6l-146 0 252 365 152 0zm399 0c47,0 93,-8 137,-27 42,-18 80,-43 113,-75 32,-32 58,-69 76,-111 19,-43 28,-89 28,-136 0,-48 -9,-95 -28,-139 -18,-42 -44,-79 -76,-112 -32,-32 -70,-57 -112,-75 -44,-19 -91,-28 -138,-28 -48,0 -94,9 -138,28 -42,18 -79,43 -112,75 -33,33 -58,70 -76,112 -19,44 -28,91 -28,139 0,47 9,93 28,136 19,42 44,79 77,111 32,32 70,57 112,75 44,18 90,27 137,27zm0 -589c32,0 63,6 92,19 28,12 53,29 74,51 21,22 37,48 48,76 12,30 18,61 18,93 0,31 -6,62 -18,90 -12,29 -28,54 -49,76 -21,22 -46,39 -74,52 -29,13 -60,19 -91,19 -32,0 -63,-6 -92,-19 -27,-13 -52,-30 -73,-52 -21,-22 -38,-47 -50,-76 -12,-28 -18,-59 -18,-90 0,-32 6,-63 18,-93 12,-28 28,-54 49,-76 22,-22 46,-39 74,-51 29,-13 60,-19 92,-19zm1115 233l-432 0 0 113 216 0 -89 127 -1 0c-7,1 -15,2 -22,3 -8,0 -16,1 -24,1 -48,0 -94,-12 -135,-38 -41,-26 -70,-63 -89,-108 -5,-14 -10,-30 -14,-45 -4,-15 -6,-31 -6,-47 0,-33 6,-64 19,-94 11,-29 28,-54 50,-77 21,-22 47,-39 75,-51 30,-13 61,-19 94,-19 36,0 71,8 104,25 33,17 59,40 79,71l145 0c-1,-5 -3,-9 -6,-14 -13,-30 -31,-57 -54,-80 -23,-24 -49,-45 -78,-61 -29,-17 -59,-30 -92,-39 -31,-9 -63,-14 -96,-14 -47,0 -94,9 -138,27 -43,18 -81,43 -114,75 -34,32 -60,69 -79,111 -19,44 -29,90 -29,138 0,45 8,89 26,131 16,40 40,76 69,107 30,31 65,57 104,76 40,19 82,31 127,35 13,2 25,3 38,3 21,0 43,-2 63,-6 21,-5 41,-10 61,-17l228 -333zm625 356l-191 -262 4 0c22,-5 43,-11 63,-20 20,-8 38,-22 54,-37 22,-22 38,-48 49,-77 11,-29 17,-59 17,-90 0,-33 -7,-64 -21,-94 -15,-30 -35,-55 -61,-76 -24,-19 -50,-32 -80,-38 -29,-6 -60,-9 -90,-9l-314 0 0 703 126 0 0 -586 186 0c17,0 33,2 49,7 15,4 29,11 41,20 12,10 21,21 28,34 8,15 11,32 11,49 0,17 -3,34 -11,50 -6,13 -15,25 -27,34 -12,10 -26,16 -41,21 -16,4 -33,6 -50,6l-146 0 253 365 151 0zm42 0l125 0 0 -183 205 0 128 183 151 0 -495 -703 -114 0 0 703zm125 -299l0 -175 7 0 118 175 -125 0zm654 -404l-116 0 0 703 126 0 0 -473 7 0 319 466 0 -466 7 0 326 473 153 0 -495 -703 -116 0 0 301 -211 -301zm869 703l126 0 0 -183 205 0 127 183 152 0 -495 -703 -115 0 0 703zm126 -299l0 -175 6 0 119 175 -125 0zm951 -293l0 -111 -220 0c-27,1 -52,6 -77,16 -23,9 -44,22 -61,39 -18,17 -32,37 -41,60 -11,25 -15,51 -15,77 0,35 6,69 24,99 18,30 45,52 75,68 10,5 21,9 31,14 10,4 20,8 31,13 15,6 30,11 45,16 15,5 29,12 42,21 13,8 23,18 32,31 9,14 12,32 12,49 0,26 -9,48 -29,64 -20,16 -43,23 -68,23l-195 0 0 113 195 0c30,0 60,-5 88,-16 25,-10 49,-25 69,-44 20,-19 35,-42 45,-68 12,-28 17,-57 17,-87 0,-26 -4,-53 -13,-77 -9,-22 -21,-41 -37,-58 -17,-17 -36,-31 -57,-42 -22,-12 -46,-22 -71,-30 -13,-4 -26,-8 -39,-12 -13,-4 -25,-10 -37,-16 -11,-7 -20,-16 -27,-27 -9,-13 -11,-28 -11,-43 0,-20 6,-37 20,-52 14,-14 32,-20 52,-20l220 0z"/>
  </g>
 </g>
</svg>
