<?xml version="1.0" encoding="UTF-8"?>
<!DOCTYPE svg PUBLIC "-//W3C//DTD SVG 1.0//EN" "http://www.w3.org/TR/2001/REC-SVG-20010904/DTD/svg10.dtd">
<!-- Creator: CorelDRAW X7 -->
<svg xmlns="http://www.w3.org/2000/svg" xml:space="preserve" width="117.402mm" height="41.857mm" version="1.0" style="shape-rendering:geometricPrecision; text-rendering:geometricPrecision; image-rendering:optimizeQuality; fill-rule:evenodd; clip-rule:evenodd"
viewBox="0 0 11417 4071"
 xmlns:xlink="http://www.w3.org/1999/xlink">
 <defs>
  <style type="text/css">
   <![CDATA[
    .str0 {stroke:#BDBFC1;stroke-width:19.4496}
    .fil2 {fill:#FEFEFE}
    .fil3 {fill:#373435}
    .fil1 {fill:#AB0011}
    .fil0 {fill:#C55D65}
   ]]>
  </style>
    <mask id="id0">
  <linearGradient id="id1" gradientUnits="userSpaceOnUse" x1="1886.83" y1="1750.47" x2="11222.6" y2="1750.47">
   <stop offset="0" style="stop-opacity:0; stop-color:white"/>
   <stop offset="1" style="stop-opacity:1; stop-color:white"/>
  </linearGradient>
     <rect style="fill:url(#id1)" x="1683" y="-10" width="9744" height="3520"/>
    </mask>
    <mask id="id2">
  <linearGradient id="id3" gradientUnits="userSpaceOnUse" x1="1886.83" y1="2320.05" x2="11222.6" y2="2320.05">
   <stop offset="0" style="stop-opacity:0; stop-color:white"/>
   <stop offset="1" style="stop-opacity:1; stop-color:white"/>
  </linearGradient>
     <rect style="fill:url(#id3)" x="1683" y="560" width="9744" height="3520"/>
    </mask>
 </defs>
 <g id="Camada_x0020_1">
  <metadata id="CorelCorpID_0Corel-Layer"/>
  <g id="_1438659311616">
   <path class="fil0" style="mask:url(#id0)" d="M3443 0l6224 0 1750 1750 0 1751 -7974 0 -1751 -1751 0 0 1751 -1750z"/>
   <path class="fil1" style="mask:url(#id2)" d="M1692 570l7975 0 1750 1750 0 1751 -9725 0 0 -3501z"/>
   <path class="fil2 str0" d="M507 21l9228 0 0 3501 -9725 0 0 -3004c0,-273 223,-497 497,-497z"/>
   <path class="fil3" d="M1848 1636l0 447 -120 0 0 -623 135 0 254 447 0 -336 -106 0 0 -111 224 0 0 623 -131 0 -256 -447zm736 447c-42,0 -83,-8 -121,-24 -37,-16 -71,-38 -100,-66 -29,-29 -51,-62 -67,-99 -17,-38 -25,-79 -25,-121 0,-42 8,-83 24,-122 16,-38 39,-71 68,-100 28,-28 62,-50 99,-66 39,-17 80,-25 122,-25 42,0 83,8 122,25 37,16 71,38 99,66 29,29 51,62 67,100 18,38 25,80 25,122 0,42 -8,83 -25,121 -16,37 -38,70 -67,99 -29,28 -62,50 -100,66 -38,16 -79,24 -121,24zm556 -378c22,7 43,16 63,27 19,10 36,22 51,37 14,15 25,33 33,52 8,22 11,46 11,69 0,27 -4,53 -14,78 -10,23 -23,43 -41,61 -18,17 -39,30 -62,39 -25,10 -51,15 -78,15l-175 0 0 -109 175 0c21,0 40,-6 56,-19 16,-13 23,-31 23,-52 0,-14 -2,-28 -10,-40 -6,-11 -15,-19 -25,-26 -11,-7 -23,-12 -36,-17 -13,-4 -27,-9 -40,-14 -9,-4 -18,-8 -27,-12 -9,-4 -18,-7 -27,-11 -27,-15 -52,-35 -67,-62 -16,-27 -22,-58 -22,-89 0,-24 4,-47 13,-69 9,-20 21,-38 37,-54 16,-15 35,-27 55,-35 22,-9 45,-13 69,-14l196 0 0 106 -196 0c-16,0 -30,6 -41,17 -12,11 -17,26 -17,42 0,12 2,24 9,34 5,9 13,16 22,22 10,6 21,10 31,13 12,4 23,7 34,11zm404 0c21,7 42,16 63,27 18,10 35,22 50,37 15,15 25,33 33,52 9,22 12,46 12,69 0,27 -5,53 -15,78 -9,23 -23,43 -41,61 -18,17 -38,30 -61,39 -25,10 -52,15 -78,15l-176 0 0 -109 176 0c20,0 39,-6 55,-19 17,-13 24,-31 24,-52 0,-14 -3,-28 -10,-40 -7,-11 -15,-19 -26,-26 -11,-7 -23,-12 -35,-17 -14,-4 -27,-9 -41,-14 -8,-4 -17,-8 -26,-12 -9,-4 -18,-7 -27,-11 -28,-15 -52,-35 -68,-62 -16,-27 -22,-58 -22,-89 0,-24 4,-47 14,-69 8,-20 21,-38 36,-54 16,-15 35,-27 56,-35 21,-9 44,-13 68,-14l197 0 0 106 -197 0c-16,0 -30,6 -41,17 -12,11 -17,26 -17,42 0,12 3,24 9,34 6,9 13,16 23,22 9,6 20,10 31,13 11,4 22,7 34,11zm480 218l-171 0 0 160 -119 0 0 -623 107 0 439 623 -145 0 -111 -160zm1036 -100l-217 0 0 260 -119 0 0 -623 119 0 0 251 217 0 0 -138 -107 0 0 -113 224 0 0 623 -117 0 0 -260zm149 260l0 -623 118 0 0 623 -118 0zm361 -378c22,7 43,16 63,27 19,10 36,22 50,37 15,15 26,33 33,52 9,22 12,46 12,69 0,27 -4,53 -14,78 -10,23 -24,43 -41,61 -18,17 -39,30 -62,39 -25,10 -51,15 -78,15l-175 0 0 -109 175 0c21,0 39,-6 56,-19 16,-13 23,-31 23,-52 0,-14 -2,-28 -10,-40 -7,-11 -15,-19 -26,-26 -11,-7 -23,-12 -35,-17 -14,-4 -27,-9 -40,-14 -9,-4 -18,-8 -27,-12 -9,-4 -18,-7 -27,-11 -28,-15 -52,-35 -68,-62 -16,-27 -21,-58 -21,-89 0,-24 4,-47 13,-69 9,-20 21,-38 37,-54 16,-15 34,-27 55,-35 22,-9 45,-13 68,-14l197 0 0 106 -197 0c-16,0 -29,6 -41,17 -11,11 -16,26 -16,42 0,12 2,24 8,34 6,9 14,16 23,22 10,6 20,10 31,13 11,4 23,7 34,11zm417 -132l0 510 -118 0 0 -510 -115 0 0 -112 350 0 0 112 -117 0zm460 510c-42,0 -82,-8 -121,-24 -37,-16 -71,-38 -99,-66 -29,-29 -52,-62 -68,-99 -17,-38 -25,-79 -25,-121 0,-42 8,-83 25,-122 16,-38 38,-71 67,-100 29,-28 62,-50 99,-66 39,-17 80,-25 122,-25 42,0 83,8 122,25 37,16 71,38 99,66 29,29 51,62 68,100 17,38 25,80 25,122 0,42 -8,83 -25,121 -17,37 -39,70 -68,99 -29,28 -62,50 -100,66 -38,16 -79,24 -121,24zm463 -511l0 511 -119 0 0 -623 278 0c27,0 54,3 80,8 26,5 50,17 72,34 23,19 41,42 54,68 13,26 19,54 19,84 0,27 -6,55 -16,80 -10,26 -24,50 -43,69 -14,14 -30,26 -49,34 -16,7 -34,12 -51,16l167 230 -144 0 -227 -328 137 0c14,0 28,-2 41,-6 13,-3 24,-9 35,-17 9,-7 17,-17 22,-28 7,-13 9,-27 9,-41 0,-14 -3,-28 -9,-40 -6,-11 -13,-21 -23,-28 -10,-8 -22,-14 -34,-17 -13,-4 -27,-6 -41,-6l-158 0zm413 511l0 -623 118 0 0 623 -118 0zm438 -160l-171 0 0 160 -120 0 0 -623 108 0 438 623 -144 0 -111 -160zm-5177 -354c-27,0 -53,5 -78,16 -24,11 -45,25 -63,44 -18,19 -32,40 -42,65 -10,25 -15,51 -15,78 0,27 5,53 16,77 10,24 24,46 41,65 18,18 39,33 63,44 25,11 51,16 78,16 27,0 53,-5 77,-16 24,-11 45,-26 63,-44 18,-19 32,-41 42,-65 10,-24 15,-50 15,-77 0,-27 -5,-53 -15,-78 -10,-24 -23,-46 -41,-65 -18,-19 -39,-33 -63,-44 -25,-11 -51,-16 -78,-16zm1269 243l94 0 -94 -140 0 140zm2594 -243c-27,0 -53,5 -78,16 -23,11 -45,25 -63,44 -18,19 -32,40 -42,65 -10,25 -15,51 -15,78 0,27 5,53 16,77 10,24 24,46 42,65 18,18 39,33 62,44 25,11 51,16 78,16 27,0 53,-5 78,-16 23,-11 44,-26 62,-44 18,-19 32,-41 42,-65 10,-24 15,-50 15,-77 0,-27 -4,-53 -15,-78 -9,-24 -23,-46 -41,-65 -18,-19 -39,-33 -63,-44 -25,-11 -51,-16 -78,-16zm1143 243l94 0 -94 -140 0 140z"/>
  </g>
 </g>
</svg>
