<?xml version="1.0" encoding="UTF-8"?>
<!DOCTYPE svg PUBLIC "-//W3C//DTD SVG 1.0//EN" "http://www.w3.org/TR/2001/REC-SVG-20010904/DTD/svg10.dtd">
<!-- Creator: CorelDRAW X7 -->
<svg xmlns="http://www.w3.org/2000/svg" xml:space="preserve" width="18.6592mm" height="17.6471mm" version="1.0" style="shape-rendering:geometricPrecision; text-rendering:geometricPrecision; image-rendering:optimizeQuality; fill-rule:evenodd; clip-rule:evenodd"
viewBox="0 0 189 179"
 xmlns:xlink="http://www.w3.org/1999/xlink">
 <defs>
  <style type="text/css">
   <![CDATA[
    .str0 {stroke:black;stroke-width:2.02701}
    .str1 {stroke:#ED3237;stroke-width:0.772292}
    .str2 {stroke:#AB0011;stroke-width:0.772292}
    .fil2 {fill:none}
    .fil0 {fill:#0D0D0D}
    .fil3 {fill:#AB0011}
    .fil1 {fill:#E30016}
   ]]>
  </style>
 </defs>
 <g id="Camada_x0020_1">
  <metadata id="CorelCorpID_0Corel-Layer"/>
  <g id="_1758644508272">
   <g>
    <g>
     <path class="fil0" d="M171 144l13 18 5 0 -17 -24 -4 0 0 24 3 0 0 -18z"/>
     <path class="fil0" d="M26 138l0 24 4 0 0 -7 8 0c3,0 5,1 5,4l0 3 3 0 0 -3c0,-2 0,-4 -1,-5l-1 -1 1 -1c1,-1 1,-3 1,-5 0,-6 -2,-9 -8,-9l-12 0zm17 9c0,3 -2,4 -5,4l-8 0 0 -9 8 0c3,0 5,2 5,5zm20 15l4 0 0 -15c0,-3 2,-5 5,-5 3,0 4,2 4,5l0 15 4 0 0 -15c0,-6 -3,-9 -8,-9 -2,0 -5,1 -6,2l-1 0 0 0c-2,-1 -4,-2 -6,-2 -6,0 -8,3 -8,9l0 15 4 0 0 -15c0,-3 1,-5 4,-5 3,0 4,2 4,5l0 15zm21 -14l0 4c0,7 4,10 10,10 7,0 10,-3 10,-10l0 -4c0,-6 -3,-10 -10,-10 -6,0 -10,4 -10,10zm10 -6c4,0 7,2 7,6l0 4c0,4 -3,6 -7,6 -4,0 -6,-2 -6,-6l0 -4c0,-4 2,-6 6,-6zm15 20l4 0 0 -14c0,-4 2,-6 6,-6 4,0 6,2 6,6l0 14 4 0 0 -14c0,-6 -3,-10 -10,-10 -7,0 -10,4 -10,10l0 14zm29 0l0 -24 -4 0 0 24 4 0zm25 0l0 -4 -10 0c-4,0 -6,-2 -6,-6l0 -4c0,-4 2,-6 6,-6l10 0 0 -4 -10 0c-6,0 -10,4 -10,10l0 4c0,7 4,10 10,10l10 0z"/>
     <path class="fil0" d="M18 144l-13 18 -5 0 17 -24 5 0 0 24 -4 0 0 -18z"/>
    </g>
    <circle class="fil0 str0" cx="177" cy="160" r="2"/>
   </g>
   <g>
    <path class="fil1" d="M150 26c5,2 9,5 12,9l0 0c0,-3 -6,-9 -9,-11 -5,-3 -10,-7 -15,-10 -9,-9 -24,-12 -37,-14l-19 0c-12,1 -28,11 -38,18 -9,9 -16,20 -18,32l0 6 0 0c0,-8 10,-24 14,-30l0 0 0 0c8,-8 17,-17 29,-20 0,-1 4,-2 5,-2 5,-2 11,-2 17,-3l0 0 0 1c17,0 32,4 46,13 3,2 6,5 9,7 2,1 3,3 4,4zm-124 46l0 3 0 0c2,-3 2,-5 3,-8 1,-4 2,-8 3,-12 3,-9 7,-21 14,-28 1,-1 9,-7 9,-8l0 0 0 0c10,-7 22,-12 34,-12 1,0 4,0 5,0 12,0 24,3 34,9l1 -1 1 2c6,2 11,6 14,11 4,6 10,14 11,21l0 0 0 1 0 2 0 0c-2,0 -5,-9 -5,-11 -1,-1 -11,-15 -13,-15l0 0 0 0c0,0 -1,-1 -2,-2l-1 1 0 0c0,0 0,0 0,0 3,3 7,6 7,9 0,2 4,12 6,13l0 0 -2 -8 0 -1 1 0 0 0c0,1 2,4 3,5l0 0 0 0c0,5 1,10 3,14l0 0 0 8c0,3 -1,5 -1,8 -1,4 -2,8 -4,12 -4,13 -9,26 -14,39 0,0 0,1 1,1 2,-1 9,-19 10,-21 1,-5 3,-10 4,-14 1,-2 2,-5 4,-7 0,-4 1,-12 4,-15 0,0 0,-2 -1,-3l0 0 0 0c0,-1 1,-2 2,-3l-2 -7 1 0c1,0 1,-4 2,-4 0,-7 -9,-20 -12,-26 -4,-3 -17,-12 -22,-13l0 0 0 0c0,-3 -22,-7 -25,-7 -1,0 -3,0 -5,0l0 0 0 0c-2,0 -3,0 -5,0 -1,-1 -2,-1 -3,-1 -3,1 -7,1 -9,2l0 0 0 0c-11,0 -28,16 -35,22l0 0 0 0c-5,0 -15,40 -16,44zm99 -55c-10,-4 -20,-6 -31,-7 2,0 3,1 4,2 2,0 4,1 6,1 7,1 13,3 19,5l0 0 0 0 1 0 0 0c0,0 0,0 1,-1zm-38 -7l-2 0c-8,0 -16,4 -22,8 -5,4 -10,8 -15,12 -4,4 -7,11 -9,16 -3,9 -6,18 -8,27l0 0 0 0c-1,1 -5,9 -5,9l0 2 0 0c1,0 4,-3 4,-4l13 -37c0,-5 10,-13 14,-16l0 0 0 0c6,-3 15,-7 22,-9 1,-1 1,-2 2,-3 -2,1 -5,2 -7,2 -4,2 -8,4 -12,5l0 1 -3 0 0 -1c7,-6 16,-9 25,-10 0,0 0,-1 0,-1 1,0 2,-1 3,-1zm17 8c5,1 10,2 15,5l1 -2c0,0 0,-1 1,-1 -5,-2 -12,-3 -19,-4 1,1 1,1 2,2zm25 10c1,1 2,1 3,2l0 0 0 0c4,7 13,20 13,29l0 10 0 0c-2,6 -3,11 -5,16 0,2 -1,3 -1,5 -1,1 -1,2 -1,3 -3,10 -6,21 -10,32l0 0 2 0c2,-6 4,-13 7,-19 3,-9 6,-18 9,-27 0,-5 1,-10 3,-15 0,-3 -1,-6 -1,-8 0,-1 -1,-3 -2,-3l0 0 0 0c-2,-6 -8,-18 -15,-25l-2 0zm-50 -8c-7,2 -17,7 -21,9 -10,9 -16,19 -16,32 0,3 0,5 0,7l0 0 0 0c-2,12 -8,22 -16,30l0 1 0 1c5,-4 10,-9 12,-14 3,-5 6,-12 6,-18 0,-18 7,-32 24,-41l0 0 0 0c2,-1 7,-3 11,-4 0,-1 0,-2 0,-3zm62 38c0,-2 -1,-5 -1,-7 -3,-6 -8,-17 -14,-21l-1 0 -2 1c2,1 4,3 6,4l0 0 0 0c3,6 10,17 10,23l0 0 -1 0c0,0 -3,-3 -4,-4l0 0 0 0c0,-6 -6,-15 -10,-19 -1,-1 -2,-2 -3,-2l-3 1c5,4 10,10 12,14l0 0 0 0c1,1 6,13 7,13l1 0 0 1c0,6 -1,15 -4,21 -1,5 -3,9 -7,13l-8 15 0 0c-5,4 -11,8 -15,13l0 1 2 0c1,-2 5,-6 7,-7l0 0 1 0 0 0c0,1 -2,6 -3,7l1 0 7 -13 1 0 0 1 0 0c0,4 -2,9 -4,11l0 1 2 0 0 -1 0 0c2,-2 5,-6 5,-9l0 0 0 0c1,-7 3,-14 8,-19l0 -1 0 1c0,1 0,3 0,4 -1,2 -2,4 -2,6 -2,6 -5,13 -7,19l0 0 1 0c4,-4 8,-19 10,-24 0,-4 1,-14 5,-17 0,-2 0,-10 3,-11 0,-3 -1,-7 -1,-10 0,-2 1,-4 1,-5zm-24 -33c-4,-2 -8,-3 -12,-4l1 0 0 2c3,1 6,2 9,3 1,0 1,-1 2,-1zm-38 0c0,0 -1,0 -1,0 -8,3 -15,8 -21,14 -2,2 -5,6 -5,9l0 0 -1 0c-3,3 -4,14 -4,17 0,16 -9,29 -21,39l0 3 0 0c7,-6 15,-13 19,-21l6 -19c0,-7 0,-15 4,-22 4,-8 14,-13 23,-17 0,-1 0,-2 1,-3 0,0 0,0 0,0zm36 13c9,5 14,19 16,27l0 0 0 0c0,2 0,4 -1,5 0,0 1,1 1,2l0 1 0 0c-2,5 -4,10 -6,14 -1,3 -3,6 -5,8 -1,6 -18,24 -22,29 0,1 0,1 1,1l1 0c11,-12 33,-37 33,-54l0 -3c0,-3 -1,-8 -2,-12 -4,-7 -8,-15 -15,-20l-1 1 0 1zm-37 -7c-1,0 -2,1 -3,1 -3,2 -14,9 -14,13l0 0 0 0c-3,4 -7,9 -7,14 0,11 -2,21 -8,30 -4,8 -13,16 -20,21l0 1 0 1c17,-12 30,-27 30,-48l0 0 0 0c1,-5 4,-16 9,-20 0,-2 2,-5 4,-5 3,-2 6,-4 10,-6 0,0 0,0 0,0 0,0 0,-1 0,-1 0,0 -1,-1 -1,-1zm82 24c1,1 2,3 2,4l0 0 0 0c-1,1 -1,2 -1,3 0,1 0,2 0,2 0,2 1,4 1,6l1 0 0 -24c0,-7 -5,-12 -11,-16l0 0 0 1c1,1 2,2 2,3 3,2 6,8 7,12l0 0 0 0c0,3 0,6 -1,9zm-80 -20c0,0 -1,1 -2,1 -9,5 -15,13 -18,23l0 3 0 0c-1,3 -1,7 -2,11 0,1 -1,4 -2,5 0,6 -3,12 -7,16 0,3 -20,20 -23,22l0 2c12,-7 22,-18 30,-28 2,-3 3,-7 4,-11 1,-6 2,-12 3,-18 1,-3 5,-19 11,-19 2,-1 3,-3 5,-4l2 -2c0,-1 0,-1 -1,-1zm35 12c1,0 1,1 1,1l0 0 1 0c4,5 7,11 7,17l0 3 0 0c-1,5 -3,9 -4,13 0,2 -1,5 -2,7 -7,13 -16,26 -26,37l0 0 2 0c2,-2 14,-17 16,-17 2,-6 6,-13 10,-18 0,-1 1,-5 3,-6 0,-1 2,-9 4,-9l0 -6c0,-7 -4,-15 -7,-22 -1,-1 -3,-3 -5,-4 0,1 0,1 0,2 0,1 0,1 0,2zm9 26l2 0 0 0c-1,1 -1,1 -1,2l0 0 -1 0 0 -2zm-12 -21c2,3 4,6 5,8l0 0 0 3c0,8 -5,20 -9,28 -1,4 -3,8 -5,12 0,0 0,0 0,0 0,1 0,2 0,3l5 -9c7,-11 11,-23 11,-35l0 -1c0,-2 -3,-7 -5,-11 0,1 -1,2 -2,2zm-21 66c-1,2 -4,4 -6,6 0,1 1,1 1,1l1 0c3,-2 5,-4 7,-7 0,0 -1,0 -1,0 -1,0 -1,0 -2,0zm-14 -75c-3,2 -6,5 -7,8l0 0 0 0c-4,0 -7,31 -8,33l0 0 -1 0c-1,4 -3,8 -5,12l0 0 -18 18 0 0c-5,2 -9,5 -12,9l0 0 0 1c3,-1 8,-5 11,-7 7,-6 13,-13 20,-19 5,-6 8,-17 9,-24 0,-9 2,-20 10,-27l0 0 0 0c0,-1 1,-3 1,-4zm-7 21c-1,5 -2,10 -2,12 0,1 0,1 1,2l0 0 0 0c-1,7 -4,14 -8,19 -4,6 -9,10 -14,14 -3,3 -11,12 -16,14 0,0 0,0 1,0l2 0 21 -18 11 -13c1,-3 2,-7 4,-11 0,-5 1,-10 2,-14 -1,-2 -2,-3 -2,-5zm13 53l1 -2c-1,0 -2,0 -2,-1 -2,2 -5,4 -7,6l-1 0 -2 -1c-2,2 -4,3 -5,5 0,1 0,1 1,1l0 0c1,0 1,0 1,0l0 0 0 0c3,-2 5,-3 8,-5 2,-1 4,-2 6,-3zm5 -2c-4,4 -7,7 -11,10l0 0 2 0 9 -6c0,-1 1,-1 1,-2 0,0 0,-1 0,-1l-1 -1c0,0 0,0 0,0zm17 -27c4,-8 8,-17 8,-25 0,-4 -2,-8 -5,-10 0,2 1,5 1,7 1,1 1,2 1,2 0,1 0,1 0,1l0 1 0 0c0,2 1,4 1,6 0,2 0,5 -1,6l-1 1 0 0c-1,1 -2,1 -2,1 -1,1 -1,2 -1,2 0,3 -1,6 -1,8zm-31 -15c-1,6 -2,13 -3,20l0 0 0 0c-4,7 -10,14 -18,19 -3,5 -8,9 -13,12 0,1 0,1 1,1l3 0c3,-5 9,-10 14,-14l0 0 0 0c9,-6 14,-14 17,-24 0,-4 0,-9 1,-13 -1,-1 -1,-1 -2,-1zm11 5c0,4 0,10 -2,13 -1,7 -3,15 -6,22l0 1c5,-4 8,-8 11,-12 0,-1 0,-2 0,-3 -1,1 -2,2 -2,2l0 1 -1 0 -1 -1 0 0c1,-2 1,-4 1,-6l0 -4 2 -1c-1,-1 -1,-2 -1,-3 0,-2 0,-3 0,-5l0 0c-1,-1 -1,-3 -1,-4zm-5 -3c-1,2 -1,4 -1,5 -1,6 -2,11 -3,16l0 0 0 1c-5,4 -9,10 -11,16l0 0 0 0c-3,5 -8,9 -14,11l0 1 3 0c1,0 4,-3 5,-3l0 0 0 0c4,-1 14,-19 16,-22l0 0 1 0 0 0c0,8 -10,19 -16,25l0 0 2 0c3,-2 7,-6 9,-10l0 0 0 0c6,0 9,-25 10,-40 0,0 -1,0 -1,0zm-42 -13c0,11 -4,20 -12,28l0 3 0 0c1,0 5,-5 5,-6 3,-4 9,-15 9,-20l0 -2c0,0 0,-3 -2,-3l0 0zm122 8l-1 0c-1,3 -2,6 -3,10 0,0 -1,3 -1,4l0 0 0 0c-1,3 -3,5 -4,8 0,1 -1,3 -1,3 0,10 -2,20 -6,29l0 0c0,1 0,1 1,1l1 0c1,0 1,-2 1,-3l0 0 0 0c4,-5 5,-20 6,-26l0 0 0 0c2,-4 4,-9 5,-13 1,-1 2,-4 2,-5l0 -3 0 -5zm2 13l0 3 0 12c0,9 -2,19 -7,27l0 0 2 0c3,-5 6,-11 6,-18l0 -24 -1 0zm-4 7c-1,2 -1,3 -2,5 0,1 0,2 0,2 -1,6 -1,11 -3,16 0,4 -1,7 -3,10l0 2 1 0c5,-7 7,-15 7,-24l-1 -2 1 0c1,-1 2,-6 2,-7l-1 -2 -1 0zm-13 16c-1,3 -1,5 -2,7 -2,4 -3,7 -5,11 0,0 0,1 1,1l1 0c4,-6 6,-12 6,-18l0 -1 -1 0zm-83 5c-2,1 -10,8 -11,10 5,-1 9,-7 11,-10l0 0zm101 11c0,0 -2,2 -2,2 0,1 0,1 1,1 0,0 1,-1 1,-1l0 -2 0 0z"/>
    <g>
     <path class="fil2 str1" d="M79 25c0,-5 0,-11 5,-14 2,-1 3,-2 6,-2 7,0 12,6 15,12l1 0 0 2c0,1 1,1 2,1 0,1 1,1 2,1l0 1 0 0c1,0 1,1 1,2l2 -1 0 0c2,-1 4,-2 6,-4l0 0 1 -2c0,-1 1,-1 2,-2 0,0 1,0 2,-1 0,-1 1,-1 2,-1l2 -1 1 -1 2 3c0,1 1,2 2,3l3 3 -2 1 0 0c-1,1 -1,1 -2,2l0 0 -1 0 1 0 -5 3 -2 0 -10 7 0 2c0,2 0,4 0,6 0,1 0,2 0,3 -1,2 -2,5 -5,5 0,0 -1,0 -2,-1 0,3 1,6 1,8 1,3 2,7 2,10 0,2 0,5 -1,6l-1 1 0 0c-1,1 -2,1 -2,1 -1,1 -1,2 -1,2 0,4 -1,7 -2,10 0,4 -1,9 -1,13 0,7 -2,15 -10,15 -2,0 -4,-1 -4,-2l-1 -1c0,0 -1,1 -2,1 -2,0 -5,-1 -5,-4 0,-2 3,-4 5,-5 1,-1 2,-3 2,-5 0,-2 0,-5 -1,-7 0,-2 -1,-5 -1,-8 0,-2 0,-3 0,-5l0 0c-1,-2 -1,-3 -1,-5 -1,0 -2,-1 -3,-2 -3,0 -6,-1 -9,-4 -2,-2 -3,-6 -3,-9 0,-3 1,-5 2,-7 1,-2 2,-4 4,-5 0,0 -1,-1 0,-2l0 -1 0 0c0,-3 2,-5 3,-8l0 0c1,-1 1,-2 2,-3 -1,-1 -2,-2 -2,-3 0,0 0,-1 0,-1 -1,-1 -1,-2 -1,-3 0,-1 0,-2 1,-4z"/>
     <path class="fil3 str2" d="M82 32l0 0c-1,-1 -2,-2 -2,-3 0,-1 0,-2 1,-3 0,-5 0,-11 5,-13 1,-1 2,-2 4,-2 7,0 11,5 13,11l0 0 0 3c2,0 3,1 4,1 0,0 1,1 2,1l0 0 0 0c0,1 1,3 1,4l1 0c0,0 0,-1 1,-2l0 0 1 1c3,-2 6,-4 9,-6 0,0 0,0 0,-1l0 0 0 0c0,0 0,0 0,0l0 -1 0 0c0,0 0,-1 1,-1l0 0 1 1 0 0 0 -1 0 0c0,-1 0,-1 1,-1l0 0 0 0c0,0 0,0 1,1l0 -1c0,0 0,0 0,0l0 0 0 -1c0,0 0,0 1,-1l0 0 1 1 1 -1 0 1c1,1 2,2 3,3l0 1 -1 1 1 0 0 0c-1,1 -1,1 -2,1l0 0 -1 -1 0 1 0 1 0 0 -1 0c0,0 0,0 -1,0l0 0 1 1 -1 0 -1 0 0 0c0,0 0,0 -1,0l0 0 0 0c0,0 -1,0 -1,0l-11 8 -1 3c1,3 1,5 1,7 0,1 0,6 -3,6 -2,0 -3,-2 -4,-5 0,1 0,1 0,1 0,1 0,3 0,4 0,3 1,6 1,9 1,3 2,7 2,10 0,1 0,4 -1,5l0 0 0 0c-1,1 -2,1 -3,2 0,0 0,0 0,0 -1,1 -1,2 -1,3 0,3 -1,6 -2,10 0,4 -1,9 -1,13 0,5 -1,13 -8,13 -1,0 -2,0 -2,-1l0 0 0 0c0,-1 0,-2 0,-3 -1,1 -3,1 -5,1 -1,0 -2,0 -2,-1 0,-1 2,-3 3,-4 2,-1 4,-3 4,-6 0,-2 -1,-5 -1,-7 -1,-3 -1,-5 -1,-8 0,-2 -1,-4 -1,-6 0,-2 -1,-3 -1,-5 -2,-1 -3,-2 -4,-3 -3,1 -6,0 -8,-3 -2,-2 -3,-5 -3,-8 0,-2 1,-5 2,-7 2,-1 3,-3 5,-4 0,-1 -1,-2 -1,-3l0 0 0 -1c1,-2 2,-5 3,-7 1,-2 3,-4 4,-6 -2,0 -4,0 -4,-1 0,-1 1,-1 1,-1zm0 -2c0,-1 0,-1 0,-1l0 0c0,0 0,0 0,1z"/>
    </g>
   </g>
   <path class="fil0" d="M3 172l6 0 0 3 -6 0c0,1 1,1 2,1l4 0 0 3 -4 0c-3,0 -5,-2 -5,-5l0 -1c0,-3 2,-5 5,-5l4 0 0 3 -4 0c-1,0 -2,0 -2,1zm16 7l-5 0 0 -3 5 0c1,0 1,0 1,0 0,-1 0,-1 -1,-1l-2 0c-2,0 -4,-1 -4,-3 0,-2 2,-4 4,-4l5 0 0 3 -5 0c-1,0 -1,0 -1,1 0,0 0,0 1,0l2 0c3,0 4,1 4,4 0,2 -1,3 -4,3zm12 -11l5 0 0 3 -5 0c-1,0 -1,1 -1,2l0 1c0,2 0,2 1,2l5 0 0 3 -5 0c-3,0 -4,-2 -4,-5l0 -1c0,-3 1,-5 4,-5zm9 5c0,-3 2,-5 5,-5 3,0 5,2 5,5l0 1c0,3 -2,5 -5,5 -3,0 -5,-2 -5,-5l0 -1zm18 3l5 0 0 3 -5 0c-3,0 -5,-2 -5,-5l0 -6 3 0 0 6c0,2 1,2 2,2zm15 1l-3 0 0 2 -3 0 0 -6c0,-3 1,-5 5,-5 3,0 4,2 4,5l0 6 -3 0 0 -2zm16 -9c3,0 5,2 5,5l0 1c0,3 -2,5 -5,5l-5 0 0 -11 5 0zm12 4l6 0 0 3 -6 0c0,1 1,1 2,1l4 0 0 3 -4 0c-3,0 -5,-2 -5,-5l0 -1c0,-3 2,-5 5,-5l4 0 0 3 -4 0c-1,0 -2,0 -2,1zm20 -3c1,0 2,-1 3,-1 3,0 4,2 4,4l0 7 -3 0 0 -7c0,0 0,-1 -1,-1 -1,0 -1,1 -1,1l0 7 -3 0 0 -7c0,0 0,-1 -1,-1 -1,0 -1,1 -1,1l0 7 -3 0 0 -7c0,-2 1,-4 4,-4 1,0 2,1 2,1zm11 5l0 -6 3 0 0 6c0,2 0,2 2,2 1,0 1,0 1,-2l0 -6 3 0 0 6c0,3 -1,5 -4,5 -3,0 -5,-2 -5,-5zm6 -6l-3 0 1 -2 4 0 -2 2zm13 11l-5 0 0 -3 5 0c1,0 1,0 1,0 0,-1 0,-1 -1,-1l-2 0c-2,0 -4,-1 -4,-3 0,-2 2,-4 4,-4l5 0 0 3 -5 0c-1,0 -1,0 -1,1 0,0 0,0 1,0l2 0c3,0 4,1 4,4 0,2 -1,3 -4,3zm11 0l-3 0 0 -11 3 0 0 11zm9 -11l5 0 0 3 -5 0c-1,0 -2,1 -2,2l0 1c0,2 1,2 2,2l5 0 0 3 -5 0c-3,0 -5,-2 -5,-5l0 -1c0,-3 2,-5 5,-5zm15 9l-3 0 0 2 -3 0 0 -6c0,-3 1,-5 4,-5 3,0 5,2 5,5l0 6 -3 0 0 -2zm-141 -6c-1,0 -2,1 -2,2l0 1c0,2 1,2 2,2 1,0 2,0 2,-2l0 -1c0,-1 -1,-2 -2,-2zm25 3l3 0 0 -1c0,-1 0,-2 -1,-2 -2,0 -2,1 -2,2l0 1zm17 -3l0 5 2 0c2,0 2,0 2,-2l0 -1c0,-1 0,-2 -2,-2l-2 0zm96 3l3 0 0 -1c0,-1 0,-2 -2,-2 -1,0 -1,1 -1,2l0 1z"/>
  </g>
 </g>
</svg>
